<svg id="visual" viewBox="0 0 900 600" width="900" height="600" xmlns="http://www.w3.org/2000/svg" xmlns:xlink="http://www.w3.org/1999/xlink" version="1.1"><rect x="0" y="0" width="900" height="600" fill="#ffffff"></rect><path d="M0 378L16.7 380.2C33.3 382.3 66.7 386.7 100 379.2C133.3 371.7 166.7 352.3 200 346.5C233.3 340.7 266.7 348.3 300 352.7C333.3 357 366.7 358 400 367.8C433.3 377.7 466.7 396.3 500 395.8C533.3 395.3 566.7 375.7 600 371.3C633.3 367 666.7 378 700 387.3C733.3 396.7 766.7 404.3 800 403.3C833.3 402.3 866.7 392.7 883.3 387.8L900 383L900 601L883.3 601C866.7 601 833.3 601 800 601C766.7 601 733.3 601 700 601C666.7 601 633.3 601 600 601C566.7 601 533.3 601 500 601C466.7 601 433.3 601 400 601C366.7 601 333.3 601 300 601C266.7 601 233.3 601 200 601C166.7 601 133.3 601 100 601C66.7 601 33.3 601 16.7 601L0 601Z" fill="#1d9c8a"></path><path d="M0 440L16.7 442.2C33.3 444.3 66.7 448.7 100 445.3C133.3 442 166.7 431 200 431.3C233.3 431.7 266.7 443.3 300 446.5C333.3 449.7 366.7 444.3 400 444.7C433.3 445 466.7 451 500 449.8C533.3 448.7 566.7 440.3 600 428.7C633.3 417 666.7 402 700 397.3C733.3 392.7 766.7 398.3 800 397.7C833.3 397 866.7 390 883.3 386.5L900 383L900 601L883.3 601C866.7 601 833.3 601 800 601C766.7 601 733.3 601 700 601C666.7 601 633.3 601 600 601C566.7 601 533.3 601 500 601C466.7 601 433.3 601 400 601C366.7 601 333.3 601 300 601C266.7 601 233.3 601 200 601C166.7 601 133.3 601 100 601C66.7 601 33.3 601 16.7 601L0 601Z" fill="#0086a5"></path><path d="M0 429L16.7 432.7C33.3 436.3 66.7 443.7 100 450.5C133.3 457.3 166.7 463.7 200 461.5C233.3 459.3 266.7 448.7 300 447C333.3 445.3 366.7 452.7 400 458.5C433.3 464.3 466.7 468.7 500 470.3C533.3 472 566.7 471 600 466.5C633.3 462 666.7 454 700 448.2C733.3 442.3 766.7 438.7 800 440.7C833.3 442.7 866.7 450.3 883.3 454.2L900 458L900 601L883.3 601C866.7 601 833.3 601 800 601C766.7 601 733.3 601 700 601C666.7 601 633.3 601 600 601C566.7 601 533.3 601 500 601C466.7 601 433.3 601 400 601C366.7 601 333.3 601 300 601C266.7 601 233.3 601 200 601C166.7 601 133.3 601 100 601C66.7 601 33.3 601 16.7 601L0 601Z" fill="#0067a8"></path><path d="M0 504L16.7 508.3C33.3 512.7 66.7 521.3 100 519.8C133.3 518.3 166.7 506.7 200 502.3C233.3 498 266.7 501 300 497.7C333.3 494.3 366.7 484.7 400 480.7C433.3 476.7 466.7 478.3 500 484.8C533.3 491.3 566.7 502.7 600 503.3C633.3 504 666.7 494 700 497C733.3 500 766.7 516 800 517.7C833.3 519.3 866.7 506.7 883.3 500.3L900 494L900 601L883.3 601C866.7 601 833.3 601 800 601C766.7 601 733.3 601 700 601C666.7 601 633.3 601 600 601C566.7 601 533.3 601 500 601C466.7 601 433.3 601 400 601C366.7 601 333.3 601 300 601C266.7 601 233.3 601 200 601C166.7 601 133.3 601 100 601C66.7 601 33.3 601 16.7 601L0 601Z" fill="#344194"></path><path d="M0 555L16.7 551.8C33.3 548.7 66.7 542.3 100 543.7C133.3 545 166.7 554 200 561C233.3 568 266.7 573 300 571.5C333.3 570 366.7 562 400 552.5C433.3 543 466.7 532 500 532.8C533.3 533.7 566.7 546.3 600 551C633.3 555.7 666.7 552.3 700 554.2C733.3 556 766.7 563 800 561C833.3 559 866.7 548 883.3 542.5L900 537L900 601L883.3 601C866.7 601 833.3 601 800 601C766.7 601 733.3 601 700 601C666.7 601 633.3 601 600 601C566.7 601 533.3 601 500 601C466.7 601 433.3 601 400 601C366.7 601 333.3 601 300 601C266.7 601 233.3 601 200 601C166.7 601 133.3 601 100 601C66.7 601 33.3 601 16.7 601L0 601Z" fill="#54006c"></path></svg>